<svg width="58" height="58" viewBox="0 0 58 58" fill="none" xmlns="http://www.w3.org/2000/svg">
<circle cx="29" cy="29" r="29" fill="white"/>
<path d="M40.6781 28.2726L29.9564 38.9943C28.6429 40.3077 26.8614 41.0457 25.0039 41.0457C23.1463 41.0457 21.3649 40.3077 20.0514 38.9943C18.7379 37.6808 18 35.8993 18 34.0418C18 32.1842 18.7379 30.4027 20.0514 29.0893L30.7731 18.3676C31.6487 17.4919 32.8364 17 34.0747 17C35.3131 17 36.5007 17.4919 37.3764 18.3676C38.252 19.2433 38.744 20.4309 38.744 21.6693C38.744 22.9076 38.252 24.0953 37.3764 24.9709L26.6431 35.6926C26.2052 36.1304 25.6114 36.3764 24.9922 36.3764C24.373 36.3764 23.7792 36.1304 23.3414 35.6926C22.9036 35.2548 22.6576 34.6609 22.6576 34.0418C22.6576 33.4226 22.9036 32.8288 23.3414 32.3909L33.2464 22.4976" stroke="#28282F" stroke-width="2.5" stroke-linecap="round" stroke-linejoin="round"/>
</svg>
