<svg width="16" height="16" viewBox="0 0 16 16" fill="none" xmlns="http://www.w3.org/2000/svg">
<path d="M10.9505 5.47803C12.0816 5.47803 13.1663 5.94979 13.966 6.78954C14.7658 7.62929 15.2151 8.76823 15.2151 9.95581V15.1799H12.372V9.95581C12.372 9.55995 12.2223 9.1803 11.9557 8.90039C11.6891 8.62047 11.3275 8.46322 10.9505 8.46322C10.5735 8.46322 10.212 8.62047 9.94537 8.90039C9.67878 9.1803 9.52901 9.55995 9.52901 9.95581V15.1799H6.68597V9.95581C6.68597 8.76823 7.13527 7.62929 7.93503 6.78954C8.73479 5.94979 9.8195 5.47803 10.9505 5.47803Z" fill="#28282F" stroke="#28282F" stroke-width="0.908877" stroke-linecap="round" stroke-linejoin="round"/>
<path d="M3.84304 6.22461H1V15.1802H3.84304V6.22461Z" fill="#28282F" stroke="#28282F" stroke-width="0.908877" stroke-linecap="round" stroke-linejoin="round"/>
<path d="M2.42152 3.98519C3.2066 3.98519 3.84304 3.31693 3.84304 2.49259C3.84304 1.66826 3.2066 1 2.42152 1C1.63644 1 1 1.66826 1 2.49259C1 3.31693 1.63644 3.98519 2.42152 3.98519Z" fill="#28282F" stroke="#28282F" stroke-width="0.908877" stroke-linecap="round" stroke-linejoin="round"/>
</svg>
