<svg width="13" height="14" viewBox="0 0 13 14" fill="none" xmlns="http://www.w3.org/2000/svg">
<path d="M9.48074 0H2.91973C1.30715 0 0 1.37621 0 3.07398V9.98161C0 11.6794 1.30715 13.0556 2.91973 13.0556H9.48074C11.0933 13.0556 12.4005 11.6794 12.4005 9.98161V3.07398C12.4005 1.37621 11.0932 0 9.48074 0ZM6.20023 10.2102C4.25569 10.2102 2.67358 8.54446 2.67358 6.49705C2.67358 4.44978 4.25569 2.78409 6.20023 2.78409C8.1449 2.78409 9.72701 4.44978 9.72701 6.49705C9.72688 8.54446 8.14477 10.2102 6.20023 10.2102ZM9.9432 3.40035C9.49876 3.40035 9.13837 3.02092 9.13837 2.55301C9.13837 2.08509 9.49876 1.70566 9.9432 1.70566C10.3876 1.70566 10.748 2.08509 10.748 2.55301C10.748 3.02092 10.3876 3.40035 9.9432 3.40035Z" fill="#28282F"/>
<path d="M6.20076 3.9209C4.85147 3.9209 3.75378 5.07643 3.75378 6.49682C3.75378 7.9172 4.85147 9.07287 6.20076 9.07287C7.55005 9.07287 8.64787 7.91734 8.64787 6.49682C8.64774 5.07656 7.55005 3.9209 6.20076 3.9209Z" fill="#28282F"/>
</svg>
