<svg width="14" height="12" viewBox="0 0 14 12" fill="none" xmlns="http://www.w3.org/2000/svg">
<path d="M14 0.00672484C13.3906 0.458456 12.7159 0.803959 12.0018 1.02993C11.6186 0.566818 11.1092 0.238578 10.5427 0.0896016C9.9761 -0.0593751 9.37968 -0.021901 8.83405 0.196956C8.28842 0.415812 7.81992 0.805492 7.4919 1.31329C7.16388 1.82109 6.99217 2.42251 7 3.0362V3.70496C5.88168 3.73544 4.77354 3.47478 3.77428 2.94622C2.77502 2.41765 1.91566 1.63758 1.27273 0.675484C1.27273 0.675484 -1.27273 6.69432 4.45455 9.36935C3.14397 10.3043 1.58274 10.773 0 10.7069C5.72727 14.0507 12.7273 10.7069 12.7273 3.01614C12.7267 2.82986 12.7096 2.64404 12.6764 2.46107C13.3258 1.78796 13.7842 0.938114 14 0.00672484Z" fill="#28282F"/>
</svg>
