<svg width="18" height="10" viewBox="0 0 18 10" fill="none" xmlns="http://www.w3.org/2000/svg">
<path d="M9.87109 9.99558C10.3278 9.99558 10.5146 9.70559 10.5093 9.34202C10.4861 7.97275 11.0448 7.23562 12.0535 8.19632C13.1695 9.25916 13.4004 9.99558 14.7556 9.99558H17.1555C17.7615 9.99558 18 9.80987 18 9.51845C18 8.90203 16.9343 7.81418 16.0313 7.01562C14.7669 5.89778 14.7076 5.87135 15.7966 4.52566C17.1473 2.85496 18.9142 0.714276 17.3513 0.714276H14.3657C13.7867 0.714276 13.7447 1.02499 13.5384 1.48784C12.7922 3.16424 11.374 5.33564 10.8355 5.00351C10.2723 4.65708 10.5303 3.28496 10.5731 1.2457C10.5843 0.707134 10.5813 0.337853 9.71735 0.146427C9.24562 0.0428565 8.78663 0 8.36065 0C6.65597 0 5.48002 0.680705 6.14824 0.799275C7.32645 1.00856 7.2132 3.43638 6.93871 4.48494C6.46023 6.31063 4.66181 3.03925 3.91259 1.40998C3.73184 1.01856 3.67635 0.714276 3.03137 0.714276H0.590225C0.221241 0.714276 0 0.82856 0 1.08284C0 1.51284 2.21991 5.88278 4.33932 8.06132C6.40623 10.1863 8.44915 9.99558 9.87109 9.99558Z" fill="#28282F"/>
</svg>
