<svg width="141" height="46" viewBox="0 0 141 46" fill="none" xmlns="http://www.w3.org/2000/svg">
<g clip-path="url(#clip0_1_771)">
<path d="M56.2194 34.6137V29.2622H59.2674V29.9454H56.8967V34.6137H56.2194Z" fill="black"/>
<path d="M60.2834 31.312C59.4932 31.312 59.2674 32.109 59.2674 32.7922C59.2674 33.4753 59.4932 34.2724 60.2834 34.2724C61.0737 34.2724 61.4123 33.4753 61.4123 32.7922C61.2995 32.109 61.0737 31.312 60.2834 31.312ZM58.5901 31.5397C58.5901 31.312 58.5901 31.0843 58.5901 30.8565H59.2674V31.4258C59.4932 30.8565 59.9448 30.7427 60.5092 30.7427C61.5252 30.7427 62.0897 31.6536 62.0897 32.6783C62.0897 33.5892 61.6381 34.614 60.2834 34.614C59.9448 34.614 59.4932 34.5001 59.2674 34.0447V35.8664H58.5901V31.5397Z" fill="black"/>
<path d="M64.0088 35.9801H63.3314L63.8959 34.6138L62.3154 30.9702H63.1057L64.2346 33.8167L65.3635 30.9702H66.1537L64.0088 35.9801Z" fill="black"/>
<path d="M67.3955 34.6139H66.7181V30.8564H69.992V34.6139H69.2017V31.4258H67.3955V34.6139Z" fill="black"/>
<path d="M71.5725 34.6139H70.8951V30.8564H74.0561V34.6139H73.3787V31.4258H71.5725V34.6139Z" fill="black"/>
<path d="M76.7654 32.7922C76.3138 32.7922 75.7494 33.0199 75.7494 33.4753C75.7494 33.9308 76.088 34.1585 76.4267 34.1585C77.2169 34.1585 77.4427 33.4753 77.3298 32.7922H76.7654V32.7922ZM77.4427 32.3367C77.4427 31.6536 77.4427 31.312 76.6525 31.312C76.3138 31.312 75.9751 31.5397 75.9751 31.8813H75.2978C75.2978 31.0843 75.9751 30.7427 76.6525 30.7427C77.4427 30.7427 78.1201 30.9704 78.1201 31.9952V33.7031C78.1201 33.8169 78.1201 34.1585 78.1201 34.5001H77.6685C77.5556 34.5001 77.4427 34.5001 77.4427 34.5001C77.4427 34.3862 77.4427 34.1585 77.4427 34.0447C77.2169 34.5001 76.7654 34.7278 76.3138 34.7278C75.6365 34.7278 75.072 34.3862 75.072 33.7031C75.072 32.6783 75.9751 32.3367 76.8783 32.3367H77.4427V32.3367Z" fill="black"/>
<path d="M81.0553 34.6139V30.8564H81.7326V32.5644L83.0873 30.8564H83.9904L82.41 32.6782L84.1033 34.6139H83.2002L81.7326 32.7921V34.6139H81.0553Z" fill="black"/>
<path d="M86.1354 34.1584C86.9256 34.1584 87.2643 33.4753 87.2643 32.6782C87.2643 31.8812 87.0385 31.198 86.1354 31.198C85.3451 31.198 85.0065 31.8812 85.0065 32.6782C85.1193 33.5891 85.3451 34.1584 86.1354 34.1584ZM87.9416 32.7921C87.9416 33.9307 87.3771 34.7277 86.1354 34.7277C84.8936 34.7277 84.3291 33.9307 84.3291 32.7921C84.3291 31.6535 84.8936 30.8564 86.1354 30.8564C87.3771 30.8564 87.9416 31.6535 87.9416 32.7921Z" fill="black"/>
<path d="M92.2314 34.6139V31.7673L91.2154 34.6139H90.651L89.635 31.7673H89.5221V34.6139H88.8447V30.8564H89.8607L90.8768 33.703L91.8928 30.8564H92.9088V34.6139H92.2314Z" fill="black"/>
<path d="M94.7149 34.6139H94.0376V30.8564H97.1985V34.6139H96.5212V31.4258H94.7149V34.6139Z" fill="black"/>
<path d="M99.795 32.7922C99.3435 32.7922 98.779 33.0199 98.779 33.4753C98.779 33.9308 99.1177 34.1585 99.4564 34.1585C100.247 34.1585 100.472 33.4753 100.359 32.7922H99.795V32.7922ZM100.472 32.3367C100.472 31.6536 100.472 31.312 99.6822 31.312C99.3435 31.312 99.0048 31.5397 99.0048 31.8813H98.3275C98.3275 31.0843 99.0048 30.7427 99.6822 30.7427C100.472 30.7427 101.15 30.9704 101.15 31.9952V33.7031C101.15 33.8169 101.15 34.1585 101.15 34.5001H100.698C100.585 34.5001 100.472 34.5001 100.472 34.5001C100.472 34.3862 100.472 34.1585 100.472 34.0447C100.247 34.5001 99.795 34.7278 99.3435 34.7278C98.6661 34.7278 98.1017 34.3862 98.1017 33.7031C98.1017 32.6783 99.0048 32.3367 99.9079 32.3367H100.472V32.3367Z" fill="black"/>
<path d="M102.956 34.6139H102.279V30.8564H102.956V32.4505H104.762V30.8564H105.439V34.6139H104.762V32.9059H102.956V34.6139Z" fill="black"/>
<path d="M106.568 34.6139V30.8564H107.246V33.703L108.939 30.8564H109.729V34.6139H109.052V31.8812H108.939L107.246 34.6139H106.568Z" fill="black"/>
<path d="M112.439 29.8315C112.777 29.8315 113.116 29.6038 113.116 29.2622H113.455C113.455 29.8315 113.003 30.287 112.439 30.287C111.761 30.287 111.423 29.8315 111.423 29.2622H111.761C111.761 29.6038 112.1 29.8315 112.439 29.8315ZM110.858 34.6137V30.9701H111.536V33.7028L113.229 30.9701H114.019V34.6137H113.342V31.881L111.649 34.6137H110.858Z" fill="black"/>
<path d="M117.632 34.2725C117.406 34.6141 117.067 34.728 116.841 34.728C116.616 34.728 116.503 34.6141 116.503 34.6141V33.9309C116.503 33.9309 116.616 34.0448 116.729 34.0448C116.954 34.0448 117.18 33.8171 117.293 33.5893C117.632 33.02 117.632 32.4507 117.632 30.8567V29.3765H121.018V34.6141H120.341V29.9458H118.422V31.3121C118.196 32.9062 118.083 33.7032 117.632 34.2725Z" fill="black"/>
<path d="M123.05 32.5646H124.97L124.066 30.0596L123.05 32.5646ZM121.47 34.6141L123.728 29.3765H124.518L126.663 34.6141H125.873L125.308 33.2478H122.825L122.26 34.6141H121.47Z" fill="black"/>
<path d="M127.115 34.6137V29.2622H127.905V31.5394H130.388V29.2622H131.066V34.6137H130.388V32.2226H127.905V34.6137H127.115Z" fill="black"/>
<path d="M132.307 34.6137V29.2622H132.985V33.3612L135.468 29.2622H136.259V34.6137H135.468V30.5147L132.985 34.6137H132.307Z" fill="black"/>
<path d="M138.516 29.9454H136.823V29.2622H141V29.9454H139.307V34.6137H138.516V29.9454Z" fill="black"/>
<path d="M68.0728 25.2773H65.5893V19.3566H58.7029V25.2773H56.2194V11.9556H58.7029V17.4209H65.5893V11.9556H68.0728V25.2773Z" fill="black"/>
<path d="M73.7174 22.3167C74.5076 23.3414 75.6365 23.4553 77.1041 23.4553C78.233 23.4553 79.5877 23.4553 80.4908 22.3167C80.9424 21.6335 81.281 20.6088 81.281 18.6731C81.281 16.6236 80.9424 15.5989 80.4908 15.0296C79.5877 13.8909 78.233 13.8909 77.1041 13.8909C75.9752 13.8909 74.6205 13.8909 73.7174 15.0296C73.1529 15.7127 72.8142 16.7375 72.8142 18.6731C72.9271 20.4949 73.1529 21.5197 73.7174 22.3167ZM82.4099 13.2078C83.7646 14.5741 83.8775 16.8513 83.8775 18.5593C83.8775 20.0395 83.8775 22.5444 82.4099 23.9107C80.9424 25.2771 78.6845 25.2771 77.1041 25.2771C75.5236 25.2771 73.2658 25.2771 71.7982 23.9107C70.2178 22.4305 70.2178 20.0395 70.2178 18.5593C70.2178 16.7375 70.3307 14.5741 71.7982 13.2078C73.2658 11.8414 75.4107 11.8414 77.1041 11.8414C78.6845 11.7276 80.9424 11.7276 82.4099 13.2078Z" fill="black"/>
<path d="M93.3602 18.5595C93.9247 18.5595 94.602 18.5595 94.9407 18.1041C95.3923 17.6486 95.3923 16.7377 95.3923 16.2823C95.3923 15.713 95.3923 14.916 94.9407 14.4605C94.4891 14.0051 93.8118 14.0051 93.3602 14.0051H89.2962C89.1833 14.0051 88.9575 14.0051 88.7317 14.2328C88.6188 14.4605 88.6188 14.6882 88.6188 14.916V18.6734H93.3602V18.5595ZM86.1353 25.2773V14.0051C86.1353 13.5496 86.1352 12.9803 86.5868 12.5249C87.0384 12.0694 87.6028 11.9556 88.0544 11.9556H94.3762C95.0536 11.9556 96.1825 11.9556 96.9727 12.7526C97.8758 13.6635 97.9887 15.1437 97.9887 16.2823C97.9887 17.4209 97.8758 19.1288 96.8598 19.9259C96.4083 20.2674 95.618 20.4952 94.8278 20.4952H88.6188V25.1635H86.1353V25.2773Z" fill="black"/>
<path d="M102.73 22.317C102.73 22.8863 102.73 23.0001 102.843 23.114C103.069 23.3417 103.52 23.3417 103.746 23.3417H107.697C108.149 23.3417 108.6 23.3417 109.052 23.0001C109.504 22.5447 109.391 21.8615 109.391 21.4061C109.391 20.9506 109.391 20.3813 108.939 19.9259C108.6 19.5843 108.036 19.5843 107.697 19.5843H102.73V22.317ZM111.423 13.8912H103.633C103.408 13.8912 103.069 13.8912 102.956 14.0051C102.73 14.2328 102.73 14.5744 102.73 14.8021V17.5348H109.052C109.729 17.5348 110.745 17.6486 111.423 18.5595C111.874 19.2427 112.1 20.2674 112.1 21.4061C112.1 23.114 111.761 23.911 111.423 24.3665C111.084 24.708 110.407 25.2773 109.165 25.2773H102.053C101.376 25.2773 100.924 25.0496 100.698 24.708C100.359 24.3665 100.359 23.7972 100.359 23.4556V13.8912C100.359 13.4358 100.472 12.8665 100.811 12.411C101.037 12.1833 101.488 11.9556 102.166 11.9556H111.536V13.8912H111.423Z" fill="black"/>
<path d="M124.405 25.277L124.518 15.1434C124.518 14.9157 124.518 14.6879 124.292 14.6879C124.179 14.6879 123.954 15.0295 123.841 15.2572L118.422 24.1384C118.083 24.7077 117.632 25.3909 116.277 25.3909C114.358 25.3909 114.358 23.9107 114.358 23.1137V11.9553H116.841V21.8612C116.841 22.2028 116.841 22.4305 117.067 22.4305C117.18 22.4305 117.293 22.2028 117.406 21.9751L122.712 13.2077C123.389 12.0691 124.066 11.7275 124.97 11.7275C127.002 11.7275 127.002 13.4355 127.002 14.1186V25.1632H124.405V25.277Z" fill="black"/>
<path d="M133.436 25.2773V13.8912H128.243V11.9556H141V13.8912H135.92V25.2773H133.436Z" fill="black"/>
<path d="M34.8831 15.3711L29.0128 0.796846C28.2226 0.569123 27.4323 0.3414 26.6421 0.227539L33.98 18.4454L34.8831 15.3711Z" fill="black"/>
<path d="M36.2377 10.4751L32.9639 2.50482C32.1737 2.04938 31.2706 1.7078 30.3674 1.36621L35.4475 13.6632L36.2377 10.4751Z" fill="black"/>
<path d="M34.6573 3.41602L36.8023 8.65364L37.5925 5.69324C36.6894 4.89621 35.6734 4.21305 34.6573 3.41602Z" fill="black"/>
<path d="M33.5284 20.3812L25.2874 0.113861C25.1745 0.113861 25.0616 0.113861 24.9487 0.113861C24.3842 0 23.7069 0 23.1425 0L32.6252 23.4554L33.5284 20.3812Z" fill="black"/>
<path d="M19.7559 0.227723L31.2707 28.4653L32.1738 25.3911L21.7879 0C21.1105 0.113861 20.4332 0.113861 19.7559 0.227723Z" fill="black"/>
<path d="M30.7061 30.2872L18.514 0.455566C17.8366 0.569428 17.1593 0.797151 16.5948 0.911012L29.803 33.3615L30.7061 30.2872Z" fill="black"/>
<path d="M45.6077 23.7972C45.6077 22.8863 45.4948 21.8616 45.3819 20.9507L40.7534 37.3467C43.6886 33.7032 45.6077 29.0348 45.6077 23.7972Z" fill="black"/>
<path d="M36.3507 41.6734C37.2538 40.9903 38.157 40.1932 39.0601 39.3962L45.0433 18.3319C44.7046 17.1932 44.3659 16.0546 43.9144 14.916L36.3507 41.6734Z" fill="black"/>
<path d="M32.3995 43.9506C33.1898 43.609 33.98 43.1535 34.7702 42.6981L43.1241 13.208C42.6726 12.411 42.221 11.5001 41.7694 10.8169L32.3995 43.9506Z" fill="black"/>
<path d="M12.8695 2.27734C12.0793 2.73279 11.2891 3.18823 10.4988 3.64368L2.37073 32.4506C2.82229 33.3615 3.16096 34.1585 3.72541 34.9556L12.8695 2.27734Z" fill="black"/>
<path d="M8.91834 4.66846C8.01521 5.35163 7.11209 6.14866 6.20897 6.94568L0.564453 26.9853C0.790234 28.2378 1.1289 29.3764 1.58047 30.515L8.91834 4.66846Z" fill="black"/>
<path d="M-5.85055e-05 22.2029C-5.85055e-05 22.8861 -5.8506e-05 23.5693 0.112832 24.2524L4.40266 9.10889C1.58041 12.6386 -0.112949 17.193 -5.85055e-05 22.2029Z" fill="black"/>
<path d="M9.14417 35.2969L10.0473 32.2227L9.14417 35.2969Z" fill="black"/>
<path d="M10.4988 30.4009L16.482 45.089C17.2722 45.3168 18.0624 45.5445 18.8527 45.6583L11.4019 27.3267L10.4988 30.4009Z" fill="black"/>
<path d="M10.7246 42.4701L8.57966 37.1187L7.78943 40.0791C8.69255 40.8761 9.70856 41.6731 10.7246 42.4701Z" fill="black"/>
<path d="M9.9344 32.2227L9.14417 35.2969L12.418 43.3811C13.2082 43.8365 14.1113 44.292 15.0145 44.6335L9.9344 32.2227Z" fill="black"/>
<path d="M11.8535 25.505L20.2074 45.8862C20.3203 45.8862 20.5461 45.8862 20.659 45.8862C21.2234 45.8862 21.7879 46.0001 22.3523 46.0001L12.7566 22.3169L11.8535 25.505Z" fill="black"/>
<path d="M25.739 45.8862L14.2242 17.4209L13.321 20.4952L23.707 46.0001C24.3843 46.0001 25.0616 45.8862 25.739 45.8862Z" fill="black"/>
<path d="M14.6758 15.4854L26.9808 45.6587C27.6582 45.5448 28.3355 45.4309 28.9 45.2032L15.5789 12.4111L14.6758 15.4854Z" fill="black"/>
</g>
<defs>
<clipPath id="clip0_1_771">
<rect width="141" height="46" fill="white"/>
</clipPath>
</defs>
</svg>
